<mxfile host="65bd71144e">
    <diagram id="J0ffqLFM4szs4zCCzg1E" name="Page-1">
        <mxGraphModel dx="1273" dy="317" grid="1" gridSize="10" guides="1" tooltips="1" connect="1" arrows="1" fold="1" page="1" pageScale="1" pageWidth="850" pageHeight="1100" math="0" shadow="0">
            <root>
                <mxCell id="0"/>
                <mxCell id="1" parent="0"/>
                <mxCell id="2" value="0" style="whiteSpace=wrap;html=1;aspect=fixed;fillColor=#B3B3B3;" parent="1" vertex="1">
                    <mxGeometry x="160" y="80" width="520" height="520" as="geometry"/>
                </mxCell>
                <mxCell id="4" value="1" style="rounded=0;whiteSpace=wrap;html=1;fillColor=#6a00ff;fontColor=#ffffff;strokeColor=#3700CC;" parent="1" vertex="1">
                    <mxGeometry x="165" y="85" width="500" height="250" as="geometry"/>
                </mxCell>
                <mxCell id="5" value="2" style="rounded=0;whiteSpace=wrap;html=1;fillColor=#008a00;fontColor=#ffffff;strokeColor=#005700;" parent="1" vertex="1">
                    <mxGeometry x="165" y="345" width="500" height="250" as="geometry"/>
                </mxCell>
                <mxCell id="6" value="5" style="rounded=0;whiteSpace=wrap;html=1;fillColor=#e3c800;fontColor=#000000;strokeColor=#B09500;" parent="1" vertex="1">
                    <mxGeometry x="170" y="350" width="240" height="240" as="geometry"/>
                </mxCell>
                <mxCell id="7" value="6" style="rounded=0;whiteSpace=wrap;html=1;fillColor=#76608a;fontColor=#ffffff;strokeColor=#432D57;" parent="1" vertex="1">
                    <mxGeometry x="420" y="350" width="240" height="240" as="geometry"/>
                </mxCell>
                <mxCell id="8" value="4" style="rounded=0;whiteSpace=wrap;html=1;fillColor=#f0a30a;fontColor=#000000;strokeColor=#BD7000;" parent="1" vertex="1">
                    <mxGeometry x="420" y="90" width="240" height="240" as="geometry"/>
                </mxCell>
                <mxCell id="9" value="3" style="rounded=0;whiteSpace=wrap;html=1;fillColor=#fa6800;fontColor=#000000;strokeColor=#C73500;" parent="1" vertex="1">
                    <mxGeometry x="170" y="90" width="240" height="240" as="geometry"/>
                </mxCell>
                <mxCell id="10" value="" style="rounded=1;whiteSpace=wrap;html=1;fillColor=#1ba1e2;fontColor=#ffffff;strokeColor=#006EAF;container=1;" vertex="1" parent="1">
                    <mxGeometry x="120" y="760" width="110" height="100" as="geometry"/>
                </mxCell>
                <mxCell id="12" value="next = this_idx+1" style="rounded=0;whiteSpace=wrap;html=1;" vertex="1" parent="10">
                    <mxGeometry x="6.470588235294117" y="6" width="97.05882352941177" height="40" as="geometry"/>
                </mxCell>
                <mxCell id="13" value="data" style="rounded=0;whiteSpace=wrap;html=1;" vertex="1" parent="10">
                    <mxGeometry x="6.470588235294117" y="52" width="97.05882352941177" height="40" as="geometry"/>
                </mxCell>
                <mxCell id="17" style="edgeStyle=none;html=1;exitX=1;exitY=0.5;exitDx=0;exitDy=0;entryX=0;entryY=0.25;entryDx=0;entryDy=0;" edge="1" parent="1" source="12" target="18">
                    <mxGeometry relative="1" as="geometry">
                        <mxPoint x="290" y="800" as="targetPoint"/>
                    </mxGeometry>
                </mxCell>
                <mxCell id="18" value="" style="rounded=1;whiteSpace=wrap;html=1;fillColor=#1ba1e2;fontColor=#ffffff;strokeColor=#006EAF;container=1;" vertex="1" parent="1">
                    <mxGeometry x="260" y="760" width="110" height="100" as="geometry"/>
                </mxCell>
                <mxCell id="19" value="next = this_idx+1" style="rounded=0;whiteSpace=wrap;html=1;" vertex="1" parent="18">
                    <mxGeometry x="6.470588235294117" y="6" width="97.05882352941177" height="40" as="geometry"/>
                </mxCell>
                <mxCell id="20" value="data" style="rounded=0;whiteSpace=wrap;html=1;" vertex="1" parent="18">
                    <mxGeometry x="6.470588235294117" y="52" width="97.05882352941177" height="40" as="geometry"/>
                </mxCell>
                <mxCell id="21" value="" style="rounded=1;whiteSpace=wrap;html=1;fillColor=#1ba1e2;fontColor=#ffffff;strokeColor=#006EAF;container=1;" vertex="1" parent="1">
                    <mxGeometry x="390" y="760" width="110" height="100" as="geometry"/>
                </mxCell>
                <mxCell id="22" value="next = this_idx+1" style="rounded=0;whiteSpace=wrap;html=1;" vertex="1" parent="21">
                    <mxGeometry x="6.470588235294117" y="6" width="97.05882352941177" height="40" as="geometry"/>
                </mxCell>
                <mxCell id="23" value="data" style="rounded=0;whiteSpace=wrap;html=1;" vertex="1" parent="21">
                    <mxGeometry x="6.470588235294117" y="52" width="97.05882352941177" height="40" as="geometry"/>
                </mxCell>
                <mxCell id="26" style="edgeStyle=none;html=1;exitX=1;exitY=0.5;exitDx=0;exitDy=0;entryX=0;entryY=0.25;entryDx=0;entryDy=0;" edge="1" parent="1" source="19" target="21">
                    <mxGeometry relative="1" as="geometry"/>
                </mxCell>
                <mxCell id="27" value="" style="rounded=1;whiteSpace=wrap;html=1;fillColor=#1ba1e2;fontColor=#ffffff;strokeColor=#006EAF;container=1;" vertex="1" parent="1">
                    <mxGeometry x="520" y="760" width="110" height="100" as="geometry"/>
                </mxCell>
                <mxCell id="28" value="next = this_idx+1" style="rounded=0;whiteSpace=wrap;html=1;" vertex="1" parent="27">
                    <mxGeometry x="6.470588235294117" y="6" width="97.05882352941177" height="40" as="geometry"/>
                </mxCell>
                <mxCell id="29" value="data" style="rounded=0;whiteSpace=wrap;html=1;" vertex="1" parent="27">
                    <mxGeometry x="6.470588235294117" y="52" width="97.05882352941177" height="40" as="geometry"/>
                </mxCell>
                <mxCell id="30" style="edgeStyle=none;html=1;exitX=1;exitY=0.5;exitDx=0;exitDy=0;entryX=0;entryY=0.25;entryDx=0;entryDy=0;" edge="1" source="28" target="31" parent="1">
                    <mxGeometry relative="1" as="geometry">
                        <mxPoint x="690" y="800" as="targetPoint"/>
                    </mxGeometry>
                </mxCell>
                <mxCell id="31" value="" style="rounded=1;whiteSpace=wrap;html=1;fillColor=#1ba1e2;fontColor=#ffffff;strokeColor=#006EAF;container=1;" vertex="1" parent="1">
                    <mxGeometry x="660" y="760" width="110" height="100" as="geometry"/>
                </mxCell>
                <mxCell id="32" value="next = this_idx+1" style="rounded=0;whiteSpace=wrap;html=1;" vertex="1" parent="31">
                    <mxGeometry x="6.470588235294117" y="6" width="97.05882352941177" height="40" as="geometry"/>
                </mxCell>
                <mxCell id="33" value="data" style="rounded=0;whiteSpace=wrap;html=1;" vertex="1" parent="31">
                    <mxGeometry x="6.470588235294117" y="52" width="97.05882352941177" height="40" as="geometry"/>
                </mxCell>
                <mxCell id="34" value="" style="rounded=1;whiteSpace=wrap;html=1;fillColor=#1ba1e2;fontColor=#ffffff;strokeColor=#006EAF;container=1;" vertex="1" parent="1">
                    <mxGeometry x="790" y="760" width="110" height="100" as="geometry"/>
                </mxCell>
                <mxCell id="35" value="next = this_idx+1" style="rounded=0;whiteSpace=wrap;html=1;" vertex="1" parent="34">
                    <mxGeometry x="6.470588235294117" y="6" width="97.05882352941177" height="40" as="geometry"/>
                </mxCell>
                <mxCell id="36" value="data" style="rounded=0;whiteSpace=wrap;html=1;" vertex="1" parent="34">
                    <mxGeometry x="6.470588235294117" y="52" width="97.05882352941177" height="40" as="geometry"/>
                </mxCell>
                <mxCell id="37" style="edgeStyle=none;html=1;exitX=1;exitY=0.5;exitDx=0;exitDy=0;entryX=0;entryY=0.25;entryDx=0;entryDy=0;" edge="1" source="32" target="34" parent="1">
                    <mxGeometry relative="1" as="geometry"/>
                </mxCell>
                <mxCell id="38" style="edgeStyle=none;html=1;exitX=1;exitY=0.5;exitDx=0;exitDy=0;entryX=0;entryY=0.25;entryDx=0;entryDy=0;" edge="1" parent="1" source="22" target="27">
                    <mxGeometry relative="1" as="geometry"/>
                </mxCell>
                <mxCell id="39" value="" style="rounded=1;whiteSpace=wrap;html=1;fillColor=#1ba1e2;fontColor=#ffffff;strokeColor=#006EAF;container=1;" vertex="1" parent="1">
                    <mxGeometry x="-70" y="760" width="110" height="140" as="geometry"/>
                </mxCell>
                <mxCell id="40" value="next: idx&lt;br&gt;prev: idx&lt;br&gt;this:&amp;nbsp; idx&lt;br&gt;" style="rounded=0;whiteSpace=wrap;html=1;" vertex="1" parent="39">
                    <mxGeometry x="6.47" y="8.4" width="97.06" height="51.6" as="geometry"/>
                </mxCell>
                <mxCell id="41" value="data" style="rounded=0;whiteSpace=wrap;html=1;" vertex="1" parent="39">
                    <mxGeometry x="6.470588235294117" y="72.8" width="97.05882352941177" height="56" as="geometry"/>
                </mxCell>
            </root>
        </mxGraphModel>
    </diagram>
</mxfile>